# xmcd
#
# Track frame offsets:
#	150
#	23852
#	48049
#	66157
#	87563
#	104906
#	131392
#	153035
#	167191
#	194082
#	213539
#	231267
#	251215
#	272953
#	291279
#	307253
#	329092
#
# Disc length: 4671 seconds
#
# Revision: 0
# Processed by: cddbd v1.5.1PL2 Copyright (c) Steve Scherf et al.
# Submitted via: audiograbber 1.83.01
#
DISCID=12123d11
DTITLE=Various Artist - Die Hit Giganten - Rockballaden CD1
DYEAR=2006
DGENRE=Rock
TTITLE0=Who Wants To Live Forever - Queen
TTITLE1=I'd Do Anything For Love (But I Won't Do That)  - Meat Loaf
TTITLE2=Rosanna - Toto
TTITLE3=More Than A Feeling - Boston
TTITLE4=Hold On - Kansas
TTITLE5=The Loner - Gary Moore
TTITLE6=Black Velvet - Alannah Myles
TTITLE7=The Last Unicorn - America
TTITLE8=All You Zombies - The Hooters
TTITLE9=Every Rose Has Its Thorn - Poison
TTITLE10=Am Fenster - City
TTITLE11=I Wonder Why - Curtis Stigers
TTITLE12=Hiroshima - Wishful Thinking
TTITLE13=A Whiter Shade Of Pale - Procol Harum
TTITLE14=Free Me - Uriah Heep
TTITLE15=Child In The Sun - Nazareth
TTITLE16=I Love You Much Too Much - Santana
EXTD=
EXTT0=
EXTT1=
EXTT2=
EXTT3=
EXTT4=
EXTT5=
EXTT6=
EXTT7=
EXTT8=
EXTT9=
EXTT10=
EXTT11=
EXTT12=
EXTT13=
EXTT14=
EXTT15=
EXTT16=
PLAYORDER=
